<?xml version="1.0" encoding="utf-8"?>
<!-- Generator: Adobe Illustrator 25.1.0, SVG Export Plug-In . SVG Version: 6.00 Build 0)  -->
<svg version="1.1" id="Capa_1" xmlns="http://www.w3.org/2000/svg" xmlns:xlink="http://www.w3.org/1999/xlink" x="0px" y="0px"
	 viewBox="0 0 25 25" style="enable-background:new 0 0 25 25;" xml:space="preserve">
<style type="text/css">
	.st0{fill:none;stroke:#C3C3C3;stroke-width:0.3;stroke-miterlimit:10;}
	.st1{fill:none;}
	.st2{fill:#C3C3C3;}
</style>
<path class="st0" d="M35.3,6.5"/>
<g>
	<circle class="st1" cx="8.0475" cy="16.2869" r="0.8659"/>
	<path class="st1" d="M14.6838,3.3352c1.2197,0,2.2119,1.6836,2.2119,3.7529c0,0.1915-0.0104,0.3868-0.0282,0.5812l0.192,0.245
		l0.9667-1.5165c-0.2999-2.8188-1.7017-4.8624-3.3424-4.8624c-0.7299,0-1.4227,0.407-2.0104,1.1656
		c0.3094,0.3367,0.5876,0.7491,0.8235,1.2263C13.8505,3.5454,14.2563,3.3352,14.6838,3.3352z"/>
	<path class="st1" d="M16.6794,7.4293c0.0065-0.1141,0.0171-0.229,0.0171-0.3411c0-1.959-0.9033-3.5527-2.0127-3.5527
		c-0.3912,0-0.7693,0.205-1.0974,0.5851c0.4656,1.0217,0.7476,2.2973,0.7589,3.6852l1.3522-1.6297L16.6794,7.4293z"/>
	<path class="st1" d="M8.5339,7.49c0-2.0693,0.9927-3.7529,2.2124-3.7529c0.9582,0,1.7975,1.0505,2.0942,2.5729L12.95,6.1804
		l1.1899,1.4086c-0.0911-3.1424-1.576-5.6518-3.3936-5.6518c-1.5453,0-2.8918,1.8221-3.2868,4.4343l1.0793,1.247
		C8.538,7.5756,8.5339,7.5328,8.5339,7.49z"/>
	<polygon class="st1" points="17.1672,23.3175 19.2034,19.7908 19.2034,8.0067 18.1877,6.5168 17.1672,8.1165 	"/>
	<path class="st1" d="M11.8018,15.4282c-0.4735,0-0.8588,0.3852-0.8588,0.8587s0.3853,0.8587,0.8588,0.8587
		c0.4734,0,0.8587-0.3852,0.8587-0.8587S12.2753,15.4282,11.8018,15.4282z"/>
	<path class="st1" d="M15.6936,6.4944l-1.3574,1.6362L12.95,6.49l-1.3853,1.6406l-1.3579-1.6367l-1.3911,1.75L8.5873,7.98
		L8.553,7.9827C8.5518,7.968,8.5523,7.953,8.5513,7.9383L7.3049,6.4978L6.0808,8.2556L4.7415,6.532L4.1319,7.996L3.5662,23.4529
		H16.968V8.1225L15.6936,6.4944z M9.9132,11.8978c0.0337-0.0421,0.0724-0.0643,0.1085-0.0967
		c0.0139-0.015,0.0294-0.0267,0.0447-0.04c0.0345-0.0263,0.0687-0.053,0.1052-0.0709c0.0511-0.0267,0.1066-0.041,0.1655-0.0503
		c0.015-0.0021,0.0281-0.0123,0.0433-0.0132c0.0048-0.0002,0.0088,0.0018,0.0135,0.0016c0.0089-0.0004,0.0164-0.0051,0.0253-0.0051
		c0.0361,0,0.0676,0.0139,0.1017,0.0206c0.0309,0.0059,0.0615,0.0087,0.0902,0.0182c0.0133,0.0051,0.0257,0.0104,0.0385,0.0164
		c0.158,0.0625,0.2755,0.1618,0.2994,0.1847h0.2348l0.1715,0.2619h-0.3994c0.0013,0.0152,0.0089,0.0282,0.0089,0.0437
		c0,0.3008-0.2448,0.5456-0.5456,0.5456s-0.5456-0.2448-0.5456-0.5456c0-0.0389,0.0145-0.0731,0.0222-0.1097
		c-0.0083-0.012-0.0214-0.0218-0.0236-0.0366C9.8635,11.9616,9.9112,11.9004,9.9132,11.8978z M7.2617,13.9004h1.2806v0.2037H7.2617
		V13.9004z M7.2617,14.2496h1.2806v0.2037H7.2617V14.2496z M7.2617,14.5989h1.2806v0.2037H7.2617V14.5989z M8.0475,17.5746
		c-0.7101,0-1.2878-0.5777-1.2878-1.2877c0-0.7101,0.5777-1.2877,1.2878-1.2877c0.71,0,1.2877,0.5776,1.2877,1.2877
		C9.3352,16.9969,8.7575,17.5746,8.0475,17.5746z M10.2955,15.2405l-0.4088,2.0148l-0.4216-0.0602l0.3206-1.7046L8.678,14.7758
		l1.1116-1.843h0.3974l0.0018,0.0012l1.7433,1.1708L11.54,14.3159l-0.0034-0.0016l-1.2455-0.606l-0.6624,1.092l0.6677,0.4354
		L10.2955,15.2405z M11.8018,17.5818c-0.7141,0-1.295-0.5809-1.295-1.2949c0-0.7141,0.5809-1.2949,1.295-1.2949
		c0.714,0,1.2949,0.5809,1.2949,1.2949C13.0967,17.0009,12.5158,17.5818,11.8018,17.5818z"/>
	<polygon class="st1" points="20.4221,6.5125 19.4026,8.0056 19.4026,19.7919 21.4417,23.3237 21.4417,8.0056 	"/>
	<path class="st1" d="M10.2039,6.1765l1.3618,1.6426l1.1119-1.3162c-0.2499-1.5121-1.0388-2.5657-1.9312-2.5657
		c-1.1094,0-2.0122,1.5938-2.0122,3.5527c0,0.1236,0.0067,0.2472,0.014,0.3703l0.0607,0.0701L10.2039,6.1765z"/>
	<path class="st2" d="M20.4221,6.158L19.303,7.7971l-1.1104-1.6277c-0.3591-2.8118-1.8066-4.8341-3.5088-4.8341
		c-0.7863,0-1.5256,0.4279-2.149,1.2217c-0.5276-0.5186-1.1373-0.8199-1.7885-0.8199c-1.6126,0-3.0096,1.8201-3.4525,4.4431
		L7.2874,6.1726L6.072,7.9187L4.6887,6.1384L3.9402,7.9363l-0.002,0.0353L3.9324,7.9714L3.9208,8.2873l-0.0002,0.003h0.0001
		L3.3625,23.5486l-0.0034,0.1035H16.968v0.0105l-0.0013,0.0022h0.0013h0.1992h4.2744h0.197h0.0023V7.9441L20.4221,6.158z
		 M18.1877,6.5168l1.0156,1.4898v11.7842l-2.0361,3.5267V8.1165L18.1877,6.5168z M14.6838,1.5354
		c1.6407,0,3.0425,2.0435,3.3424,4.8624l-0.9667,1.5165l-0.192-0.245c0.0178-0.1943,0.0282-0.3897,0.0282-0.5812
		c0-2.0693-0.9922-3.7529-2.2119-3.7529c-0.4275,0-0.8334,0.2102-1.1868,0.5922c-0.2359-0.4772-0.5141-0.8896-0.8235-1.2263
		C13.2611,1.9424,13.9539,1.5354,14.6838,1.5354z M14.3453,7.8057c-0.0114-1.3879-0.2933-2.6635-0.7589-3.6852
		c0.3281-0.3802,0.7062-0.5851,1.0974-0.5851c1.1094,0,2.0127,1.5938,2.0127,3.5527c0,0.1121-0.0106,0.227-0.0171,0.3411
		L15.6975,6.176L14.3453,7.8057z M10.7463,1.9373c1.8175,0,3.3024,2.5094,3.3936,5.6518L12.95,6.1804l-0.1094,0.1295
		c-0.2967-1.5223-1.136-2.5729-2.0942-2.5729c-1.2197,0-2.2124,1.6836-2.2124,3.7529c0,0.0428,0.0041,0.0856,0.0049,0.1285
		l-1.0793-1.247C7.8545,3.7593,9.201,1.9373,10.7463,1.9373z M8.7482,7.8603C8.7408,7.7372,8.7341,7.6136,8.7341,7.49
		c0-1.959,0.9028-3.5527,2.0122-3.5527c0.8924,0,1.6813,1.0536,1.9312,2.5657l-1.1119,1.3162l-1.3618-1.6426l-1.395,1.7539
		L8.7482,7.8603z M3.5662,23.4529L4.1319,7.996L4.7415,6.532l1.3394,1.7236l1.2241-1.7578l1.2463,1.4405
		C8.5523,7.953,8.5518,7.968,8.553,7.9827L8.5873,7.98l0.2283,0.2639l1.3911-1.75l1.3579,1.6367L12.95,6.49l1.3862,1.6406
		l1.3574-1.6362l1.2744,1.6281v15.3304H3.5662z M19.4026,19.7919V8.0056l1.0195-1.4932l1.0195,1.4932v15.3181L19.4026,19.7919z"/>
	<polygon class="st2" points="10.2912,13.7083 11.5367,14.3143 11.54,14.3159 11.9321,14.1048 10.1888,12.934 10.187,12.9328 
		9.7896,12.9328 8.678,14.7758 9.7857,15.4905 9.4651,17.1951 9.8867,17.2553 10.2955,15.2405 10.2964,15.2358 9.6288,14.8004 	"/>
	<path class="st2" d="M9.8738,12.1688c0,0.3008,0.2448,0.5456,0.5456,0.5456s0.5456-0.2448,0.5456-0.5456
		c0-0.0155-0.0076-0.0285-0.0089-0.0437h0.3994l-0.1715-0.2619h-0.2348c-0.0239-0.0229-0.1414-0.1222-0.2994-0.1847
		c-0.0128-0.006-0.0251-0.0114-0.0385-0.0164c-0.0287-0.0095-0.0593-0.0124-0.0902-0.0182
		c-0.0341-0.0067-0.0657-0.0206-0.1017-0.0206c-0.009,0-0.0165,0.0047-0.0253,0.0051c-0.0048,0.0001-0.0088-0.0019-0.0135-0.0016
		c-0.0152,0.0009-0.0284,0.0111-0.0433,0.0132c-0.059,0.0093-0.1144,0.0236-0.1655,0.0503
		c-0.0364,0.0179-0.0707,0.0446-0.1052,0.0709c-0.0154,0.0133-0.0309,0.025-0.0447,0.04c-0.0361,0.0324-0.0748,0.0547-0.1085,0.0967
		c-0.002,0.0026-0.0497,0.0638-0.0408,0.1247c0.0022,0.0148,0.0153,0.0246,0.0236,0.0366
		C9.8882,12.0957,9.8738,12.1299,9.8738,12.1688z"/>
	<path class="st2" d="M11.8018,14.9919c-0.7141,0-1.295,0.5809-1.295,1.2949c0,0.714,0.5809,1.2949,1.295,1.2949
		c0.714,0,1.2949-0.5809,1.2949-1.2949C13.0967,15.5728,12.5158,14.9919,11.8018,14.9919z M11.8018,17.1456
		c-0.4735,0-0.8588-0.3852-0.8588-0.8587s0.3853-0.8587,0.8588-0.8587c0.4734,0,0.8587,0.3852,0.8587,0.8587
		S12.2753,17.1456,11.8018,17.1456z"/>
	<path class="st2" d="M8.0475,14.9991c-0.7101,0-1.2878,0.5776-1.2878,1.2877c0,0.71,0.5777,1.2877,1.2878,1.2877
		c0.71,0,1.2877-0.5777,1.2877-1.2877C9.3352,15.5768,8.7575,14.9991,8.0475,14.9991z M8.0475,17.1528
		c-0.4775,0-0.8659-0.3885-0.8659-0.8659c0-0.4775,0.3884-0.8659,0.8659-0.8659s0.8659,0.3884,0.8659,0.8659
		C8.9134,16.7643,8.525,17.1528,8.0475,17.1528z"/>
	<rect x="7.2617" y="14.5989" class="st2" width="1.2806" height="0.2037"/>
	<rect x="7.2617" y="14.2496" class="st2" width="1.2806" height="0.2037"/>
	<rect x="7.2617" y="13.9004" class="st2" width="1.2806" height="0.2037"/>
</g>
</svg>
