<?xml version="1.0" encoding="utf-8"?>
<!-- Generator: Adobe Illustrator 25.1.0, SVG Export Plug-In . SVG Version: 6.00 Build 0)  -->
<svg version="1.1" xmlns="http://www.w3.org/2000/svg" xmlns:xlink="http://www.w3.org/1999/xlink" x="0px" y="0px"
	 viewBox="0 0 500 500" style="enable-background:new 0 0 500 500;" xml:space="preserve">
<style type="text/css">
	.st0{display:none;}
	.st1{fill:#FF1515;}
</style>
<g id="Capa_1" class="st0">
</g>
<g id="Capa_2">
	<g id="cuerpo">
		<g>
			<g>
				<polygon points="239.8,122.1 154.8,263.1 239.8,318 215.2,448.8 246.5,453.3 277.9,298.9 226.4,265.3 277.9,180.4 374.1,227.3 
					403.2,211.6 269.9,122.1 				"/>
			</g>
		</g>
	</g>
	<g id="cabeza">
		<g>
			<g>
				<circle cx="288" cy="62.8" r="40.3"/>
			</g>
			<g>
				<path d="M288,104.2c-22.8,0-41.4-18.6-41.4-41.4s18.6-41.4,41.4-41.4s41.4,18.6,41.4,41.4S310.8,104.2,288,104.2z M288,23.6
					c-21.6,0-39.2,17.6-39.2,39.2s17.6,39.2,39.2,39.2s39.2-17.6,39.2-39.2S309.5,23.6,288,23.6z"/>
			</g>
		</g>
	</g>
	<g id="gorro">
		<g>
			<g>
				<path class="st1" d="M328.2,58.3h29.6l-11.7-17.9h-17.9c0,0-42.5-42.5-78.3,2.2c0,0-6.7,8.5,0,13.2
					C256.6,60.5,283.5,71.7,328.2,58.3z"/>
			</g>
			<g>
				<path class="st1" d="M287.9,65.7c-19.5,0-32.9-5-38.6-9c-1.9-1.3-3.1-3.1-3.4-5.2c-0.7-4.7,3-9.4,3.1-9.6
					c10.5-13.1,22.6-20.1,35.9-20.9c22.5-1.2,41,15.5,43.7,18.2h18.1l13.2,20.1h-31.5C313,64,299.4,65.7,287.9,65.7z M287.3,23.2
					c-0.7,0-1.5,0-2.2,0.1c-12.7,0.7-24.2,7.4-34.3,20c0,0-3.2,4.2-2.7,7.9c0.2,1.5,1,2.7,2.4,3.7c8.8,6.2,36.3,14.6,77.4,2.3l0.3,0
					h27.6l-10.3-15.7h-17.8l-0.3-0.3C327.3,41,309.2,23.2,287.3,23.2z"/>
			</g>
		</g>
	</g>
	<g id="llanta_delantera">
		<g>
			<g>
				<path d="M394.3,477.9c-54.3,0-98.5-44.2-98.5-98.5S340,281,394.3,281s98.5,44.2,98.5,98.5S448.6,477.9,394.3,477.9z
					 M394.3,312.3c-37,0-67.1,30.1-67.1,67.1s30.1,67.1,67.1,67.1s67.1-30.1,67.1-67.1S431.3,312.3,394.3,312.3z"/>
				<path d="M394.3,478.5c-54.6,0-99-44.4-99-99c0-54.6,44.4-99,99-99c54.6,0,99,44.4,99,99C493.3,434.1,448.9,478.5,394.3,478.5z
					 M394.3,281.5c-54,0-97.9,43.9-97.9,97.9s43.9,97.9,97.9,97.9s97.9-43.9,97.9-97.9S448.3,281.5,394.3,281.5z M394.3,447.2
					c-37.3,0-67.7-30.4-67.7-67.7c0-37.3,30.4-67.7,67.7-67.7c37.3,0,67.7,30.4,67.7,67.7C462,416.8,431.6,447.2,394.3,447.2z
					 M394.3,312.9c-36.7,0-66.6,29.9-66.6,66.6s29.9,66.6,66.6,66.6s66.6-29.9,66.6-66.6S431,312.9,394.3,312.9z"/>
			</g>
		</g>
	</g>
	<g id="llanta_delantera_1_">
		<g>
			<g>
				<path d="M105.5,477.9c-54.3,0-98.5-44.2-98.5-98.5S51.2,281,105.5,281s98.5,44.2,98.5,98.5S159.8,477.9,105.5,477.9z
					 M105.5,312.3c-37,0-67.1,30.1-67.1,67.1s30.1,67.1,67.1,67.1s67.1-30.1,67.1-67.1S142.6,312.3,105.5,312.3z"/>
				<path d="M105.5,478.5c-54.6,0-99-44.4-99-99c0-54.6,44.4-99,99-99s99,44.4,99,99C204.6,434.1,160.1,478.5,105.5,478.5z
					 M105.5,281.5c-54,0-97.9,43.9-97.9,97.9s43.9,97.9,97.9,97.9s97.9-43.9,97.9-97.9S159.5,281.5,105.5,281.5z M105.5,447.2
					c-37.3,0-67.7-30.4-67.7-67.7c0-37.3,30.4-67.7,67.7-67.7s67.7,30.4,67.7,67.7C173.2,416.8,142.9,447.2,105.5,447.2z
					 M105.5,312.9c-36.7,0-66.6,29.9-66.6,66.6s29.9,66.6,66.6,66.6s66.6-29.9,66.6-66.6S142.3,312.9,105.5,312.9z"/>
			</g>
		</g>
	</g>
	<g id="rect-1">
		<g>
			<g>
				<rect x="45.1" y="249.6" width="98.5" height="15.7"/>
			</g>
		</g>
	</g>
	<g id="rect-2">
		<g>
			<g>
				<rect x="45.1" y="222.8" width="98.5" height="15.7"/>
			</g>
		</g>
	</g>
	<g id="rect-3">
		<g>
			<g>
				<rect x="45.1" y="195.9" width="98.5" height="15.7"/>
			</g>
		</g>
	</g>
</g>
</svg>
