<?xml version="1.0" encoding="utf-8"?>
<!-- Generator: Adobe Illustrator 25.1.0, SVG Export Plug-In . SVG Version: 6.00 Build 0)  -->
<svg version="1.1" id="Capa_1" xmlns="http://www.w3.org/2000/svg" xmlns:xlink="http://www.w3.org/1999/xlink" x="0px" y="0px"
	 viewBox="0 0 80 30" style="enable-background:new 0 0 80 30;" xml:space="preserve">
<style type="text/css">
	.st0{fill:none;}
	.st1{fill:#FF1515;}
</style>
<g>
	<path class="st0" d="M34.793,17.7354h-0.9878v4.085h0.9878c0.3423,0,0.5986-0.0947,0.7695-0.2852
		c0.1709-0.1895,0.2563-0.5127,0.2563-0.9688v-1.5771c0-0.4561-0.0854-0.7783-0.2563-0.9688S35.1353,17.7354,34.793,17.7354z"/>
	<path class="st0" d="M49.0996,17.7354h-1.0635v9.5h1.0635c0.3428,0,0.6055-0.1006,0.7891-0.3037
		c0.1836-0.2021,0.2754-0.5322,0.2754-0.9873v-6.917c0-0.4561-0.0918-0.7852-0.2754-0.9883
		C49.7051,17.8369,49.4424,17.7354,49.0996,17.7354z"/>
	<path class="st0" d="M42.2793,11.1143V3.8564c0-0.874-0.3613-1.311-1.084-1.311c-0.7207,0-1.082,0.437-1.082,1.311v7.2578
		c0,0.874,0.3613,1.311,1.082,1.311C41.918,12.4253,42.2793,11.9883,42.2793,11.1143z"/>
	<path class="st0" d="M23.3698,20.2972c-1.9595,0-3.5537,1.5941-3.5537,3.5536c0,1.9595,1.5942,3.5536,3.5537,3.5536
		c1.9595,0,3.5536-1.5942,3.5536-3.5536C26.9233,21.8914,25.3292,20.2972,23.3698,20.2972z"/>
	<path class="st0" d="M7.9622,20.2972c-1.9595,0-3.5536,1.5941-3.5536,3.5536c0,1.9595,1.5941,3.5536,3.5536,3.5536
		c1.9595,0,3.5536-1.5942,3.5536-3.5536C11.5157,21.8914,9.9216,20.2972,7.9622,20.2972z"/>
	<path class="st0" d="M60.4609,17.7354h-1.0635v9.5h1.0635c0.3428,0,0.6055-0.1006,0.7891-0.3037
		c0.1836-0.2021,0.2754-0.5322,0.2754-0.9873v-6.917c0-0.4561-0.0918-0.7852-0.2754-0.9883
		C61.0664,17.8369,60.8037,17.7354,60.4609,17.7354z"/>
	<path class="st0" d="M68.042,17.5459c-0.7217,0-1.083,0.4365-1.083,1.3105v7.2578c0,0.874,0.3613,1.3115,1.083,1.3115
		c0.7227,0,1.083-0.4375,1.083-1.3115v-7.2578C69.125,17.9824,68.7646,17.5459,68.042,17.5459z"/>
	<polygon points="22.2948,15.7291 23.8475,14.893 16.7337,10.1155 15.1285,10.1155 10.5898,17.6401 15.1285,20.5687 
		13.8146,27.5535 15.4868,27.7924 17.1589,19.5511 14.4118,17.7595 17.1589,13.2304 	"/>
	<path d="M17.6936,7.1088c-1.0427,0-1.7552-0.265-2.062-0.4798c-0.0428-0.03-0.0739-0.066-0.1019-0.1033
		c-0.0269,0.1376-0.043,0.2792-0.043,0.4247c0,1.2184,0.9912,2.2097,2.2097,2.2097c1.2184,0,2.2096-0.9912,2.2096-2.2097
		c0-0.0613-0.0132-0.119-0.0181-0.1791H19.855C19.0311,7.0175,18.3054,7.1088,17.6936,7.1088z"/>
	<path class="st1" d="M15.6317,6.629c0.3068,0.2148,1.0193,0.4798,2.062,0.4798c0.6118,0,1.3375-0.0913,2.1614-0.3376h0.0328h1.6503
		l-0.704-1.075h-0.9636C19.7223,5.554,18.735,4.659,17.5367,4.7256c-0.7133,0.0395-1.3585,0.4138-1.9177,1.1128
		c-0.0082,0.0106-0.2041,0.262-0.1675,0.5115c0.0097,0.066,0.0389,0.1233,0.0782,0.1757C15.5578,6.563,15.5888,6.599,15.6317,6.629z
		"/>
	<path d="M23.3698,18.5661c-2.9141,0-5.2849,2.3708-5.2849,5.2848c0,2.9141,2.3708,5.2849,5.2849,5.2849
		c2.914,0,5.2848-2.3708,5.2848-5.2849C28.6545,20.9369,26.2838,18.5661,23.3698,18.5661z M23.3698,27.4045
		c-1.9595,0-3.5537-1.5942-3.5537-3.5536c0-1.9595,1.5942-3.5536,3.5537-3.5536c1.9595,0,3.5536,1.5941,3.5536,3.5536
		C26.9233,25.8104,25.3292,27.4045,23.3698,27.4045z"/>
	<path d="M7.9622,18.5661c-2.9141,0-5.2849,2.3708-5.2849,5.2848c0,2.9141,2.3708,5.2849,5.2849,5.2849
		c2.914,0,5.2848-2.3708,5.2848-5.2849C13.2469,20.9369,10.8762,18.5661,7.9622,18.5661z M7.9622,27.4045
		c-1.9595,0-3.5536-1.5942-3.5536-3.5536c0-1.9595,1.5941-3.5536,3.5536-3.5536c1.9595,0,3.5536,1.5941,3.5536,3.5536
		C11.5157,25.8104,9.9216,27.4045,7.9622,27.4045z"/>
	<rect x="4.7373" y="16.9235" width="5.2553" height="0.8361"/>
	<rect x="4.7373" y="15.4902" width="5.2553" height="0.8361"/>
	<rect x="4.7373" y="14.0569" width="5.2553" height="0.8361"/>
	<polygon points="37.2441,12.2354 33.8052,12.2354 33.8052,0.8354 31.7148,0.8354 31.7148,14.1353 37.2441,14.1353 	"/>
	<path d="M43.5527,13.4512c0.543-0.5825,0.8164-1.4058,0.8164-2.4697V3.9893c0-1.064-0.2734-1.8872-0.8164-2.4702
		c-0.5449-0.582-1.3301-0.874-2.3574-0.874c-1.0254,0-1.811,0.292-2.3555,0.874c-0.5444,0.583-0.8169,1.4062-0.8169,2.4702v6.9922
		c0,1.064,0.2725,1.8872,0.8169,2.4697c0.5444,0.583,1.3301,0.874,2.3555,0.874C42.2227,14.3252,43.0078,14.0342,43.5527,13.4512z
		 M40.1133,11.1143V3.8564c0-0.874,0.3613-1.311,1.082-1.311c0.7227,0,1.084,0.437,1.084,1.311v7.2578
		c0,0.874-0.3613,1.311-1.084,1.311C40.4746,12.4253,40.1133,11.9883,40.1133,11.1143z"/>
	<path d="M48.4922,14.3252c1.0264,0,1.8076-0.291,2.3467-0.874c0.5381-0.5825,0.8076-1.4185,0.8076-2.5078
		c0-0.8359-0.165-1.5645-0.4941-2.1851c-0.3301-0.6206-0.9316-1.311-1.8057-2.0713c-0.6836-0.5952-1.1553-1.1016-1.415-1.5195
		C47.6719,4.749,47.542,4.2998,47.542,3.8184c0-0.8486,0.3486-1.2729,1.0449-1.2729c0.3418,0,0.6016,0.1045,0.7793,0.3135
		c0.1768,0.209,0.2656,0.5415,0.2656,0.9976V4.54h1.9766V3.9893c0-1.0767-0.2568-1.9028-0.7695-2.4795
		c-0.5137-0.5762-1.2705-0.8647-2.2705-0.8647c-1.0137,0-1.7861,0.2886-2.3184,0.8647c-0.5322,0.5767-0.7979,1.3901-0.7979,2.4414
		c0,0.7729,0.1709,1.4663,0.5127,2.0806c0.3418,0.6147,0.9434,1.3018,1.8057,2.0615c0.6836,0.5957,1.1523,1.1055,1.4053,1.5293
		c0.2539,0.4248,0.3799,0.9155,0.3799,1.4727c0,0.4688-0.0918,0.8076-0.2754,1.0166s-0.4531,0.3135-0.8076,0.3135
		c-0.7217,0-1.083-0.4307-1.083-1.292v-0.9121h-1.9756v0.7603c0,1.0767,0.2598,1.9028,0.7793,2.4795
		C46.7119,14.0371,47.4785,14.3252,48.4922,14.3252z"/>
	<path class="st1" d="M34.793,15.8354h-3.0781v13.3003h2.0903v-5.415h0.9878c1.0386,0,1.8174-0.2783,2.3369-0.8359
		s0.7793-1.374,0.7793-2.4512v-1.3115c0-1.0762-0.2598-1.8926-0.7793-2.4502S35.8315,15.8354,34.793,15.8354z M35.8188,20.5664
		c0,0.4561-0.0854,0.7793-0.2563,0.9688c-0.1709,0.1904-0.4272,0.2852-0.7695,0.2852h-0.9878v-4.085h0.9878
		c0.3423,0,0.5986,0.0947,0.7695,0.2852s0.2563,0.5127,0.2563,0.9688V20.5664z"/>
	<polygon class="st1" points="39.0483,29.1357 44.748,29.1357 44.748,27.2354 41.1387,27.2354 41.1387,23.1504 44.0078,23.1504 
		44.0078,21.251 41.1387,21.251 41.1387,17.7354 44.748,17.7354 44.748,15.8354 39.0483,15.8354 	"/>
	<path class="st1" d="M49.1377,15.8354h-3.1914v13.3003h3.1914c1.0391,0,1.8174-0.2783,2.3369-0.8359s0.7793-1.374,0.7793-2.4512
		v-6.7266c0-1.0762-0.2598-1.8926-0.7793-2.4502S50.1768,15.8354,49.1377,15.8354z M50.1641,25.9443
		c0,0.4551-0.0918,0.7852-0.2754,0.9873c-0.1836,0.2031-0.4463,0.3037-0.7891,0.3037h-1.0635v-9.5h1.0635
		c0.3428,0,0.6055,0.1016,0.7891,0.3037c0.1836,0.2031,0.2754,0.5322,0.2754,0.9883V25.9443z"/>
	<rect x="53.6602" y="15.8354" class="st1" width="2.0898" height="13.3003"/>
	<path class="st1" d="M60.499,15.8354h-3.1914v13.3003h3.1914c1.0391,0,1.8174-0.2783,2.3369-0.8359s0.7793-1.374,0.7793-2.4512
		v-6.7266c0-1.0762-0.2598-1.8926-0.7793-2.4502S61.5381,15.8354,60.499,15.8354z M61.5254,25.9443
		c0,0.4551-0.0918,0.7852-0.2754,0.9873c-0.1836,0.2031-0.4463,0.3037-0.7891,0.3037h-1.0635v-9.5h1.0635
		c0.3428,0,0.6055,0.1016,0.7891,0.3037c0.1836,0.2031,0.2754,0.5322,0.2754,0.9883V25.9443z"/>
	<path class="st1" d="M68.042,15.645c-1.0254,0-1.8115,0.292-2.3555,0.8745c-0.5449,0.583-0.8174,1.4062-0.8174,2.4697v6.9922
		c0,1.0645,0.2725,1.8877,0.8174,2.4707c0.5439,0.582,1.3301,0.874,2.3555,0.874c1.0264,0,1.8115-0.292,2.3564-0.874
		c0.5439-0.583,0.8164-1.4062,0.8164-2.4707v-6.9922c0-1.0635-0.2725-1.8867-0.8164-2.4697
		C69.8535,15.937,69.0684,15.645,68.042,15.645z M69.125,26.1143c0,0.874-0.3604,1.3115-1.083,1.3115
		c-0.7217,0-1.083-0.4375-1.083-1.3115v-7.2578c0-0.874,0.3613-1.3105,1.083-1.3105c0.7227,0,1.083,0.4365,1.083,1.3105V26.1143z"/>
	<path class="st1" d="M77.998,23.7588c-0.3301-0.6211-0.9316-1.3115-1.8057-2.0713c-0.6836-0.5957-1.1553-1.1016-1.415-1.5195
		c-0.2598-0.4189-0.3896-0.8682-0.3896-1.3496c0-0.8486,0.3486-1.2725,1.0449-1.2725c0.3418,0,0.6016,0.1045,0.7793,0.3135
		c0.1768,0.209,0.2656,0.541,0.2656,0.9971V19.54h1.9766v-0.5508c0-1.0762-0.2568-1.9023-0.7695-2.4795
		c-0.5137-0.5762-1.2705-0.8647-2.2705-0.8647c-1.0137,0-1.7861,0.2886-2.3184,0.8647c-0.5322,0.5771-0.7979,1.3906-0.7979,2.4414
		c0,0.7734,0.1709,1.4668,0.5127,2.0811s0.9434,1.3018,1.8057,2.0615c0.6836,0.5957,1.1523,1.1055,1.4053,1.5293
		c0.2539,0.4248,0.3799,0.915,0.3799,1.4727c0,0.4688-0.0918,0.8076-0.2754,1.0166s-0.4531,0.3135-0.8076,0.3135
		c-0.7217,0-1.083-0.4307-1.083-1.292v-0.9121h-1.9756v0.7598c0,1.0771,0.2598,1.9033,0.7793,2.4795
		c0.5186,0.5771,1.2852,0.8652,2.2988,0.8652c1.0264,0,1.8076-0.292,2.3467-0.874c0.5381-0.583,0.8076-1.4189,0.8076-2.5078
		C78.4922,25.1074,78.3271,24.3789,77.998,23.7588z"/>
</g>
</svg>
