<?xml version="1.0" encoding="utf-8"?>
<!-- Generator: Adobe Illustrator 25.1.0, SVG Export Plug-In . SVG Version: 6.00 Build 0)  -->
<svg version="1.1" id="Capa_1" xmlns="http://www.w3.org/2000/svg" xmlns:xlink="http://www.w3.org/1999/xlink" x="0px" y="0px"
	 viewBox="0 0 48 30" style="enable-background:new 0 0 48 30;" xml:space="preserve">
<style type="text/css">
	.st0{fill:none;}
	.st1{fill:#FF1515;}
</style>
<g>
	<path class="st0" d="M29.5,18.3h-1.1v9.5h1.1c0.3,0,0.6-0.1,0.8-0.3c0.2-0.2,0.3-0.5,0.3-1v-6.9c0-0.5-0.1-0.8-0.3-1
		C30.1,18.4,29.9,18.3,29.5,18.3z"/>
	<path class="st0" d="M18.2,18.3h-1.1v9.5h1.1c0.3,0,0.6-0.1,0.8-0.3c0.2-0.2,0.3-0.5,0.3-1v-6.9c0-0.5-0.1-0.8-0.3-1
		C18.8,18.4,18.5,18.3,18.2,18.3z"/>
	<path class="st0" d="M3.9,18.3h-1v4.1h1c0.3,0,0.6-0.1,0.8-0.3c0.2-0.2,0.3-0.5,0.3-1v-1.6c0-0.5-0.1-0.8-0.3-1
		C4.5,18.4,4.2,18.3,3.9,18.3z"/>
	<path class="st0" d="M11.3,11.7V4.4c0-0.9-0.4-1.3-1.1-1.3c-0.7,0-1.1,0.4-1.1,1.3v7.3c0,0.9,0.4,1.3,1.1,1.3
		C11,13,11.3,12.5,11.3,11.7z"/>
	<path class="st0" d="M37.1,18.1c-0.7,0-1.1,0.4-1.1,1.3v7.3c0,0.9,0.4,1.3,1.1,1.3c0.7,0,1.1-0.4,1.1-1.3v-7.3
		C38.2,18.5,37.8,18.1,37.1,18.1z"/>
	<polygon points="6.3,12.8 2.9,12.8 2.9,1.4 0.8,1.4 0.8,14.7 6.3,14.7 	"/>
	<path d="M12.6,14c0.5-0.6,0.8-1.4,0.8-2.5v-7c0-1.1-0.3-1.9-0.8-2.5c-0.5-0.6-1.3-0.9-2.4-0.9c-1,0-1.8,0.3-2.4,0.9
		C7.4,2.6,7.1,3.5,7.1,4.5v7c0,1.1,0.3,1.9,0.8,2.5s1.3,0.9,2.4,0.9C11.3,14.9,12.1,14.6,12.6,14z M9.2,11.7V4.4
		c0-0.9,0.4-1.3,1.1-1.3c0.7,0,1.1,0.4,1.1,1.3v7.3c0,0.9-0.4,1.3-1.1,1.3C9.5,13,9.2,12.5,9.2,11.7z"/>
	<path d="M17.6,14.9c1,0,1.8-0.3,2.3-0.9c0.5-0.6,0.8-1.4,0.8-2.5c0-0.8-0.2-1.6-0.5-2.2c-0.3-0.6-0.9-1.3-1.8-2.1
		c-0.7-0.6-1.2-1.1-1.4-1.5c-0.3-0.4-0.4-0.9-0.4-1.3c0-0.8,0.3-1.3,1-1.3c0.3,0,0.6,0.1,0.8,0.3c0.2,0.2,0.3,0.5,0.3,1v0.7h2V4.5
		c0-1.1-0.3-1.9-0.8-2.5c-0.5-0.6-1.3-0.9-2.3-0.9c-1,0-1.8,0.3-2.3,0.9c-0.5,0.6-0.8,1.4-0.8,2.4c0,0.8,0.2,1.5,0.5,2.1
		c0.3,0.6,0.9,1.3,1.8,2.1c0.7,0.6,1.2,1.1,1.4,1.5c0.3,0.4,0.4,0.9,0.4,1.5c0,0.5-0.1,0.8-0.3,1c-0.2,0.2-0.5,0.3-0.8,0.3
		c-0.7,0-1.1-0.4-1.1-1.3v-0.9h-2v0.8c0,1.1,0.3,1.9,0.8,2.5C15.8,14.6,16.5,14.9,17.6,14.9z"/>
	<path class="st1" d="M3.9,16.4H0.8v13.3h2.1v-5.4h1c1,0,1.8-0.3,2.3-0.8C6.7,22.9,7,22,7,21v-1.3c0-1.1-0.3-1.9-0.8-2.5
		C5.7,16.7,4.9,16.4,3.9,16.4z M4.9,21.1c0,0.5-0.1,0.8-0.3,1c-0.2,0.2-0.4,0.3-0.8,0.3h-1v-4.1h1c0.3,0,0.6,0.1,0.8,0.3
		c0.2,0.2,0.3,0.5,0.3,1V21.1z"/>
	<polygon class="st1" points="8.1,29.7 13.8,29.7 13.8,27.8 10.2,27.8 10.2,23.7 13.1,23.7 13.1,21.8 10.2,21.8 10.2,18.3 
		13.8,18.3 13.8,16.4 8.1,16.4 	"/>
	<path class="st1" d="M18.2,16.4H15v13.3h3.2c1,0,1.8-0.3,2.3-0.8c0.5-0.6,0.8-1.4,0.8-2.5v-6.7c0-1.1-0.3-1.9-0.8-2.5
		C20,16.7,19.2,16.4,18.2,16.4z M19.2,26.5c0,0.5-0.1,0.8-0.3,1c-0.2,0.2-0.4,0.3-0.8,0.3h-1.1v-9.5h1.1c0.3,0,0.6,0.1,0.8,0.3
		c0.2,0.2,0.3,0.5,0.3,1V26.5z"/>
	<rect x="22.7" y="16.4" class="st1" width="2.1" height="13.3"/>
	<path class="st1" d="M29.6,16.4h-3.2v13.3h3.2c1,0,1.8-0.3,2.3-0.8c0.5-0.6,0.8-1.4,0.8-2.5v-6.7c0-1.1-0.3-1.9-0.8-2.5
		C31.4,16.7,30.6,16.4,29.6,16.4z M30.6,26.5c0,0.5-0.1,0.8-0.3,1c-0.2,0.2-0.4,0.3-0.8,0.3h-1.1v-9.5h1.1c0.3,0,0.6,0.1,0.8,0.3
		c0.2,0.2,0.3,0.5,0.3,1V26.5z"/>
	<path class="st1" d="M37.1,16.2c-1,0-1.8,0.3-2.4,0.9c-0.5,0.6-0.8,1.4-0.8,2.5v7c0,1.1,0.3,1.9,0.8,2.5c0.5,0.6,1.3,0.9,2.4,0.9
		c1,0,1.8-0.3,2.4-0.9c0.5-0.6,0.8-1.4,0.8-2.5v-7c0-1.1-0.3-1.9-0.8-2.5C38.9,16.5,38.1,16.2,37.1,16.2z M38.2,26.7
		c0,0.9-0.4,1.3-1.1,1.3c-0.7,0-1.1-0.4-1.1-1.3v-7.3c0-0.9,0.4-1.3,1.1-1.3c0.7,0,1.1,0.4,1.1,1.3V26.7z"/>
	<path class="st1" d="M47.1,24.3c-0.3-0.6-0.9-1.3-1.8-2.1c-0.7-0.6-1.2-1.1-1.4-1.5c-0.3-0.4-0.4-0.9-0.4-1.3c0-0.8,0.3-1.3,1-1.3
		c0.3,0,0.6,0.1,0.8,0.3c0.2,0.2,0.3,0.5,0.3,1v0.7h2v-0.6c0-1.1-0.3-1.9-0.8-2.5c-0.5-0.6-1.3-0.9-2.3-0.9c-1,0-1.8,0.3-2.3,0.9
		c-0.5,0.6-0.8,1.4-0.8,2.4c0,0.8,0.2,1.5,0.5,2.1c0.3,0.6,0.9,1.3,1.8,2.1c0.7,0.6,1.2,1.1,1.4,1.5c0.3,0.4,0.4,0.9,0.4,1.5
		c0,0.5-0.1,0.8-0.3,1C45,27.9,44.7,28,44.4,28c-0.7,0-1.1-0.4-1.1-1.3v-0.9h-2v0.8c0,1.1,0.3,1.9,0.8,2.5c0.5,0.6,1.3,0.9,2.3,0.9
		c1,0,1.8-0.3,2.3-0.9c0.5-0.6,0.8-1.4,0.8-2.5C47.6,25.6,47.4,24.9,47.1,24.3z"/>
</g>
</svg>
