<svg id="Capa_1" enable-background="new 0 0 512 512" height="512" viewBox="0 0 512 512" width="512" xmlns="http://www.w3.org/2000/svg"><g><g><path d="m74.17 407.524h363.659v48.488h-363.659z" fill="#a2aae2"/></g><g><path d="m417.626 407.524v14.142c0 7.811-6.332 14.142-14.142 14.142h-329.314v20.203h363.659v-48.488h-20.203z" fill="#8993da"/></g><g><path d="m53.967 456.012h404.065v48.488h-404.065z" fill="#a2aae2"/></g><g><path d="m433.788 456.012h24.244v48.488h-24.244z" fill="#8993da"/></g><g><path d="m256 7.5c-89.264 0-161.626 72.362-161.626 161.626v238.398h323.252v-238.398c0-89.264-72.363-161.626-161.626-161.626z" fill="#e28086"/></g><g><path d="m313.142 17.904c42.084 42.05 68.118 100.162 68.118 164.354 0 108.625-74.548 199.829-175.27 225.266h211.636v-238.398c0-69.144-43.424-128.137-104.484-151.222z" fill="#dd636e"/></g><g><g><circle cx="256" cy="306.003" fill="#f4fbff" r="24.244"/></g><g><path d="m256 121.143c-13.39 0-24.244 10.854-24.244 24.244v112.128c0 13.389 10.854 24.244 24.244 24.244s24.244-10.854 24.244-24.244v-112.128c0-13.389-10.855-24.244-24.244-24.244z" fill="#f4fbff"/></g></g><g><path d="m287.744 257.515v-112.128c0-17.504-14.24-31.744-31.744-31.744s-31.744 14.24-31.744 31.744v112.128c0 9.713 4.39 18.417 11.284 24.244-6.894 5.828-11.284 14.531-11.284 24.244 0 17.504 14.24 31.744 31.744 31.744s31.744-14.24 31.744-31.744c0-9.713-4.39-18.416-11.284-24.244 6.894-5.827 11.284-14.531 11.284-24.244zm-15 48.488c0 9.233-7.512 16.744-16.744 16.744-9.233 0-16.744-7.511-16.744-16.744 0-9.232 7.511-16.744 16.744-16.744 9.232 0 16.744 7.512 16.744 16.744zm-33.488-48.488v-112.128c0-9.233 7.511-16.744 16.744-16.744 9.232 0 16.744 7.511 16.744 16.744v112.128c0 9.233-7.512 16.744-16.744 16.744-9.233 0-16.744-7.511-16.744-16.744z"/><path d="m458.03 448.51h-12.7v-40.99c0-4.142-3.357-7.5-7.5-7.5h-12.7v-100.76c0-4.142-3.357-7.5-7.5-7.5s-7.5 3.358-7.5 7.5v100.76h-243.04c-4.142 0-7.5 3.358-7.5 7.5s3.358 7.5 7.5 7.5h263.24v33.49h-66.83c-4.143 0-7.5 3.358-7.5 7.5s3.357 7.5 7.5 7.5h87.03v33.49h-389.06v-33.49h267.03c4.143 0 7.5-3.358 7.5-7.5s-3.357-7.5-7.5-7.5h-246.83v-33.49h50.42c4.142 0 7.5-3.358 7.5-7.5s-3.358-7.5-7.5-7.5h-30.22v-230.89c0-84.987 69.142-154.13 154.13-154.13s154.13 69.143 154.13 154.13v95.13c0 4.142 3.357 7.5 7.5 7.5s7.5-3.358 7.5-7.5v-95.13c0-93.258-75.871-169.13-169.13-169.13s-169.13 75.872-169.13 169.13v230.89h-12.7c-4.142 0-7.5 3.358-7.5 7.5v40.99h-12.7c-4.142 0-7.5 3.358-7.5 7.5v48.49c0 4.142 3.358 7.5 7.5 7.5h404.06c4.143 0 7.5-3.358 7.5-7.5v-48.49c0-4.142-3.357-7.5-7.5-7.5z"/></g></g></svg>